<svg width="32" height="32" viewBox="0 0 32 32" fill="none" xmlns="http://www.w3.org/2000/svg">
<path d="M15.98 0C7.191 0 0 7.191 0 15.98C0 24.769 7.191 31.96 15.98 31.96C24.769 31.96 31.96 24.769 31.96 15.98C31.96 7.191 24.769 0 15.98 0ZM15.98 3.995C22.6117 3.995 27.965 9.3483 27.965 15.98C27.965 22.6117 22.6117 27.965 15.98 27.965C9.3483 27.965 3.995 22.6117 3.995 15.98C3.995 9.3483 9.3483 3.995 15.98 3.995ZM13.9825 7.99V16.8589L14.6217 17.3782L16.6192 19.3757L17.9775 20.8939L20.8539 18.0175L19.3358 16.6591L17.9775 15.3008V8.0699H13.9825V7.99Z" fill="black"/>
</svg>
